<svg width="164" height="36" viewBox="0 0 164 36" fill="none" xmlns="http://www.w3.org/2000/svg">
<g clip-path="url(#clip0_132_37800)">
<path d="M64.6411 20.359L61.844 12.7156C61.7299 12.403 61.2937 12.403 61.1793 12.7156L58.3827 20.3595C58.3629 20.4139 58.3563 20.4723 58.3635 20.5297C58.3707 20.5872 58.3916 20.6421 58.4242 20.6896C58.4569 20.7372 58.5004 20.776 58.5511 20.8028C58.6017 20.8297 58.658 20.8437 58.7152 20.8436H64.3087C64.3658 20.8436 64.4221 20.8296 64.4728 20.8028C64.5235 20.7759 64.567 20.737 64.5996 20.6895C64.6322 20.6419 64.653 20.587 64.6602 20.5295C64.6674 20.472 64.6608 20.4136 64.6409 20.3593M65.9332 24.6553H57.0909C57.0185 24.6553 56.9479 24.6778 56.8885 24.7196C56.8291 24.7615 56.7838 24.8208 56.7586 24.8896L55.0178 29.6455C54.9926 29.7142 54.9473 29.7735 54.8879 29.8154C54.8285 29.8573 54.7579 29.8798 54.6856 29.8798H50.853C50.7951 29.8798 50.738 29.8653 50.6869 29.8378C50.6357 29.8102 50.592 29.7704 50.5595 29.7218C50.527 29.6731 50.5068 29.6171 50.5007 29.5587C50.4945 29.5003 50.5025 29.4413 50.5241 29.3868L59.3478 7.10382C59.3742 7.03726 59.4197 6.98025 59.4783 6.94012C59.537 6.89999 59.6062 6.87858 59.6769 6.87865H63.3467C63.4913 6.87865 63.6215 6.96776 63.6756 7.10382L72.4991 29.3865C72.5207 29.4411 72.5288 29.5002 72.5227 29.5586C72.5166 29.6171 72.4964 29.6732 72.4639 29.7219C72.4314 29.7706 72.3877 29.8105 72.3365 29.838C72.2852 29.8656 72.2281 29.88 72.1701 29.88H68.3383C68.2659 29.88 68.1953 29.8575 68.1359 29.8156C68.0765 29.7736 68.0312 29.7143 68.006 29.6455L66.265 24.8896C66.2398 24.8208 66.1945 24.7615 66.1351 24.7196C66.0757 24.6778 66.0051 24.6553 65.9327 24.6553M74.2947 14.6988H77.5727C77.6667 14.6988 77.7568 14.7367 77.8233 14.8041C77.8898 14.8715 77.9271 14.9629 77.9271 15.0582V29.5204C77.9271 29.6157 77.8898 29.7071 77.8233 29.7745C77.7568 29.8419 77.6667 29.8798 77.5727 29.8798H74.2947C74.2007 29.8798 74.1105 29.8419 74.0441 29.7745C73.9776 29.7071 73.9402 29.6157 73.9402 29.5204V15.0579C73.9402 14.9626 73.9776 14.8712 74.0441 14.8038C74.1105 14.7365 74.2007 14.6988 74.2947 14.6988ZM89.882 18.2168C89.882 18.3121 89.8447 18.4035 89.7782 18.4709C89.7117 18.5383 89.6215 18.5761 89.5275 18.5761H89.4283C87.8075 18.5761 86.6187 18.9704 85.8625 19.759C85.1059 20.5476 84.7283 21.8512 84.7283 23.6693V29.5204C84.7283 29.6157 84.6909 29.7071 84.6245 29.7745C84.558 29.8419 84.4678 29.8798 84.3738 29.8798H81.128C81.034 29.8798 80.9439 29.8419 80.8774 29.7745C80.8109 29.7071 80.7736 29.6157 80.7736 29.5204V15.0579C80.7736 14.9626 80.8109 14.8712 80.8774 14.8038C80.9439 14.7365 81.034 14.6986 81.128 14.6986H84.3412C84.4352 14.6986 84.5254 14.7365 84.5919 14.8038C84.6583 14.8712 84.6957 14.9626 84.6957 15.0579V17.9186H84.7607C85.1496 16.7357 85.7654 15.8271 86.6085 15.1913C87.4509 14.5563 88.4883 14.2384 89.7199 14.2384H89.882V18.2168ZM98.8448 18.0831C98.7508 18.0831 98.6607 18.121 98.5942 18.1884C98.5277 18.2558 98.4904 18.3471 98.4904 18.4424V24.4579C98.4904 25.0714 98.6086 25.5095 98.8467 25.7723C99.0842 26.0351 99.4949 26.1666 100.078 26.1666H100.405C100.499 26.1666 100.589 26.2044 100.655 26.2718C100.722 26.3392 100.759 26.4306 100.759 26.5259V29.553C100.759 29.6483 100.722 29.7397 100.655 29.8071C100.589 29.8745 100.499 29.9123 100.405 29.9123H99.0086C97.5608 29.9123 96.4481 29.5346 95.6702 28.7788C94.892 28.0231 94.5031 26.9008 94.5031 25.4108V18.4424C94.5031 18.3471 94.4657 18.2558 94.3993 18.1884C94.3328 18.121 94.2426 18.0831 94.1486 18.0831H92.1025C92.0085 18.0831 91.9183 18.0453 91.8519 17.9779C91.7854 17.9105 91.7481 17.8191 91.7481 17.7238V15.0579C91.7481 14.9626 91.7854 14.8712 91.8519 14.8038C91.9183 14.7365 92.0085 14.6986 92.1025 14.6986H94.1489C94.2429 14.6986 94.333 14.6607 94.3995 14.5934C94.466 14.526 94.5033 14.4346 94.5033 14.3393V8.97898C94.5033 8.88368 94.5407 8.79229 94.6071 8.7249C94.6736 8.65752 94.7638 8.61966 94.8578 8.61966H98.1357C98.2297 8.61966 98.3199 8.65752 98.3863 8.7249C98.4528 8.79229 98.4902 8.88368 98.4902 8.97898V14.3393C98.4902 14.4346 98.5275 14.526 98.594 14.5934C98.6605 14.6607 98.7506 14.6986 98.8446 14.6986H101.215C101.309 14.6986 101.399 14.7365 101.466 14.8038C101.532 14.8712 101.569 14.9626 101.569 15.0579V17.7241C101.569 17.8193 101.532 17.9107 101.466 17.9781C101.399 18.0455 101.309 18.0834 101.215 18.0834L98.8448 18.0831ZM113.855 25.378C114.6 24.5894 114.973 23.5598 114.973 22.2891C114.973 21.019 114.6 19.9889 113.855 19.2004C113.109 18.4118 112.131 18.0175 110.921 18.0175C109.711 18.0175 108.734 18.4118 107.988 19.2004C107.242 19.9889 106.87 21.019 106.87 22.2891C106.87 23.5598 107.242 24.5894 107.988 25.378C108.734 26.1666 109.711 26.5609 110.921 26.5609C112.131 26.5609 113.109 26.1666 113.855 25.378ZM106.286 29.4196C105.184 28.7846 104.314 27.8587 103.677 26.643C103.039 25.4273 102.721 23.9762 102.721 22.2891C102.721 20.6027 103.039 19.151 103.677 17.9353C104.314 16.7196 105.184 15.7945 106.286 15.1588C107.388 14.5235 108.598 14.2059 109.916 14.2059C111.083 14.2059 112.083 14.4358 112.915 14.8957C113.746 15.3557 114.411 16.0022 114.908 16.8346H114.973V15.0579C114.973 14.9626 115.01 14.8712 115.077 14.8038C115.143 14.7365 115.233 14.6986 115.327 14.6986H118.573C118.667 14.6986 118.757 14.7365 118.824 14.8038C118.89 14.8712 118.928 14.9626 118.928 15.0579V29.5202C118.928 29.6155 118.89 29.7069 118.824 29.7743C118.757 29.8417 118.667 29.8795 118.573 29.8795H115.327C115.233 29.8795 115.143 29.8417 115.077 29.7743C115.01 29.7069 114.973 29.6155 114.973 29.5202V27.7437H114.908C114.411 28.5766 113.746 29.2225 112.915 29.6824C112.083 30.1423 111.084 30.3723 109.916 30.3723C108.598 30.3723 107.388 30.0546 106.286 29.4196ZM132.426 25.378C133.171 24.5894 133.544 23.5598 133.544 22.2891C133.544 21.019 133.171 19.9889 132.426 19.2004C131.68 18.4118 130.702 18.0175 129.492 18.0175C128.282 18.0175 127.304 18.4118 126.559 19.2004C125.814 19.9889 125.44 21.019 125.44 22.2891C125.44 23.5598 125.814 24.5894 126.559 25.378C127.304 26.1666 128.282 26.5609 129.492 26.5609C130.702 26.5609 131.68 26.1666 132.426 25.378ZM127.499 29.6824C126.667 29.2225 126.002 28.5766 125.505 27.7437H125.44V29.5202C125.44 29.6155 125.403 29.7069 125.337 29.7743C125.27 29.8417 125.18 29.8795 125.086 29.8795H121.808C121.714 29.8795 121.624 29.8417 121.557 29.7743C121.491 29.7069 121.454 29.6155 121.454 29.5202V7.23725C121.454 7.14195 121.491 7.05056 121.557 6.98317C121.624 6.91579 121.714 6.87793 121.808 6.87793H125.086C125.18 6.87793 125.27 6.91579 125.337 6.98317C125.403 7.05056 125.44 7.14195 125.44 7.23725V16.8344H125.505C126.002 16.002 126.667 15.3557 127.499 14.8957C128.331 14.4356 129.33 14.2056 130.497 14.2056C131.815 14.2056 133.025 14.5233 134.128 15.1585C135.23 15.7943 136.099 16.7194 136.737 17.9349C137.374 19.1513 137.693 20.6029 137.693 22.2893C137.693 23.9764 137.374 25.4273 136.737 26.6433C136.099 27.859 135.23 28.7848 134.128 29.4196C133.026 30.0549 131.815 30.3727 130.497 30.3727C129.33 30.3727 128.331 30.1428 127.499 29.6826M143.216 29.8798H139.938C139.844 29.8798 139.754 29.8419 139.688 29.7745C139.621 29.7071 139.584 29.6157 139.584 29.5204V7.23797C139.584 7.14267 139.621 7.05127 139.688 6.98389C139.754 6.9165 139.844 6.87865 139.938 6.87865H143.216C143.31 6.87865 143.4 6.9165 143.467 6.98389C143.533 7.05127 143.571 7.14267 143.571 7.23797V29.5204C143.571 29.6157 143.533 29.7071 143.467 29.7745C143.4 29.8419 143.31 29.8798 143.216 29.8798ZM150.948 18.2149C150.405 18.6446 150.038 19.265 149.848 20.0766C149.796 20.3004 149.968 20.515 150.195 20.515H156.433C156.65 20.515 156.82 20.3186 156.785 20.102C156.66 19.3343 156.335 18.7222 155.81 18.2642C155.195 17.7276 154.389 17.4594 153.395 17.4594C152.401 17.4594 151.585 17.7111 150.948 18.2149ZM158.938 16.3253C160.213 17.7387 160.851 19.7377 160.851 22.3221V22.7514C160.851 22.8467 160.813 22.9381 160.747 23.0055C160.68 23.0728 160.59 23.1107 160.496 23.1107H150.074C150.023 23.1108 149.971 23.1224 149.924 23.1447C149.877 23.1669 149.836 23.1993 149.802 23.2396C149.769 23.2799 149.744 23.3271 149.731 23.3779C149.717 23.4287 149.715 23.4819 149.724 23.5337C149.89 24.4938 150.309 25.2565 150.981 25.8216C151.747 26.4684 152.715 26.7911 153.882 26.7911C155.388 26.7911 156.783 26.1951 158.065 25.0029C158.221 24.8572 158.47 24.8881 158.591 25.0651L160.185 27.3839C160.235 27.4561 160.257 27.5443 160.247 27.6318C160.237 27.7194 160.195 27.8001 160.13 27.8587C159.348 28.5528 158.479 29.1385 157.544 29.6005C156.507 30.115 155.286 30.3727 153.882 30.3727C152.261 30.3727 150.845 30.0383 149.635 29.3705C148.425 28.7026 147.485 27.7607 146.816 26.5446C146.145 25.3289 145.811 23.9216 145.811 22.3221C145.811 20.7234 146.135 19.3106 146.783 18.0834C147.431 16.8569 148.339 15.904 149.506 15.2246C150.673 14.546 152.034 14.2061 153.59 14.2061C155.88 14.2061 157.663 14.9128 158.938 16.3253ZM78.3553 9.35219C78.3553 10.7075 77.2714 11.8063 75.9341 11.8063C74.5967 11.8063 73.5128 10.7075 73.5128 9.35195C73.5128 7.99637 74.5969 6.89757 75.9341 6.89757C77.2714 6.89757 78.3553 7.99661 78.3553 9.35219Z" fill="#333333"/>
<path d="M18.8334 0.397306L3.24709 6.93521C2.38035 7.29884 2.38933 8.54711 3.26151 8.89756L18.9128 15.1895C20.288 15.7423 21.8194 15.7423 23.1946 15.1895L38.8462 8.89732C39.7181 8.54711 39.7276 7.29908 38.8603 6.93545L23.2745 0.397067C21.8525 -0.199413 20.2552 -0.199413 18.8332 0.397067" fill="#FCB400"/>
<path d="M22.444 18.625V34.3432C22.444 35.0906 23.1876 35.6027 23.8731 35.3273L41.3135 28.4648C41.508 28.3866 41.6748 28.251 41.7924 28.0755C41.91 27.9001 41.9728 27.6928 41.9727 27.4807V11.7627C41.9727 11.0151 41.2291 10.5032 40.5436 10.7787L23.1032 17.6412C22.9088 17.7194 22.7419 17.855 22.6244 18.0305C22.5068 18.2059 22.444 18.4129 22.444 18.625Z" fill="#18BFFF"/>
<path d="M18.3707 19.436L13.1948 21.9694L12.6693 22.2269L1.74322 27.534C1.05086 27.8728 0.166626 27.3611 0.166626 26.5811V11.8285C0.166626 11.5463 0.309351 11.3027 0.500754 11.1195C0.579277 11.0402 0.66836 10.9725 0.76541 10.9182C1.02629 10.7594 1.39869 10.717 1.71534 10.844L18.2838 17.499C19.1259 17.8377 19.1921 19.0338 18.3707 19.436Z" fill="#F82B60"/>
<path d="M18.3707 19.436L13.1948 21.9694L0.500732 11.1192C0.57927 11.04 0.668353 10.9724 0.765388 10.9182C1.02626 10.7594 1.39867 10.717 1.71531 10.844L18.2837 17.499C19.1259 17.8377 19.1921 19.0338 18.3707 19.436Z" fill="black" fill-opacity="0.25"/>
</g>
<defs>
<clipPath id="clip0_132_37800">
<rect width="163.2" height="36" fill="white" transform="translate(0.166626)"/>
</clipPath>
</defs>
</svg>
