<svg width="25" height="24" viewBox="0 0 25 24" fill="none" xmlns="http://www.w3.org/2000/svg">
<path d="M21.667 11.5C21.6704 12.8199 21.3621 14.1219 20.767 15.3C20.0614 16.7118 18.9767 17.8992 17.6344 18.7293C16.2921 19.5594 14.7452 19.9994 13.167 20C11.8471 20.0035 10.5451 19.6951 9.36699 19.1L3.66699 21L5.56699 15.3C4.97192 14.1219 4.66355 12.8199 4.66699 11.5C4.6676 9.92179 5.1076 8.37488 5.93771 7.03258C6.76782 5.69028 7.95525 4.6056 9.36699 3.90003C10.5451 3.30496 11.8471 2.99659 13.167 3.00003H13.667C15.7513 3.11502 17.72 3.99479 19.1961 5.47089C20.6722 6.94699 21.552 8.91568 21.667 11V11.5Z" stroke="#00A271" stroke-width="2" stroke-linecap="round" stroke-linejoin="round"/>
</svg>
