<svg width="20" height="24" viewBox="0 0 20 24" fill="none" xmlns="http://www.w3.org/2000/svg">
<path fill-rule="evenodd" clip-rule="evenodd" d="M17.775 10.096L17.6583 9.89598C17.5078 9.65414 17.2956 9.45313 17.0417 9.31199L11.45 6.216C11.1968 6.075 10.9094 6.0005 10.6167 6H10.375C10.0823 6.0005 9.79483 6.075 9.54167 6.216L3.95 9.31999C3.69747 9.46019 3.48772 9.66156 3.34167 9.90398L3.225 10.104C3.07812 10.3471 3.00052 10.623 3 10.904V17.104C3.00052 17.385 3.07812 17.6609 3.225 17.9039L3.34167 18.1039C3.49149 18.3435 3.70041 18.5441 3.95 18.6879L9.55 21.7839C9.80192 21.9279 10.0902 22.0026 10.3833 21.9999H10.6167C10.9094 21.9995 11.1968 21.925 11.45 21.7839L17.0417 18.6799C17.2967 18.5429 17.5072 18.3407 17.65 18.0959L17.775 17.896C17.9201 17.6522 17.9976 17.3768 18 17.096V10.896C17.9995 10.615 17.9219 10.3391 17.775 10.096ZM10.375 7.59999H10.6167L15.5 10.304L10.5 13.072L5.5 10.304L10.375 7.59999ZM11.3333 19.9999L16.2083 17.296L16.3333 17.096V11.688L11.3333 14.464V19.9999Z" fill="#475467"/>
</svg>
