<svg width="28" height="29" viewBox="0 0 28 29" fill="none" xmlns="http://www.w3.org/2000/svg">
<rect y="0.15625" width="28" height="28" rx="14" fill="#F2F4F7"/>
<path d="M14.0007 7.15625C12.0996 7.15625 11.861 7.16456 11.1143 7.19854C10.3691 7.23267 9.8604 7.35065 9.41532 7.52375C8.95492 7.70254 8.56437 7.94171 8.17528 8.33094C7.7859 8.72002 7.54673 9.11056 7.36736 9.57081C7.19381 10.016 7.07569 10.5249 7.04215 11.2698C7.00875 12.0164 7 12.2552 7 14.1562C7 16.0573 7.00846 16.2952 7.04229 17.0419C7.07656 17.7871 7.19454 18.2957 7.3675 18.7408C7.54644 19.2012 7.78561 19.5917 8.17485 19.9808C8.56379 20.3702 8.95433 20.61 9.41444 20.7887C9.85982 20.9619 10.3686 21.0798 11.1137 21.114C11.8604 21.1479 12.0988 21.1562 13.9998 21.1562C15.901 21.1562 16.1389 21.1479 16.8856 21.114C17.6308 21.0798 18.14 20.9619 18.5854 20.7887C19.0457 20.61 19.4356 20.3702 19.8246 19.9808C20.214 19.5917 20.4531 19.2012 20.6325 18.741C20.8046 18.2957 20.9227 17.7869 20.9577 17.042C20.9912 16.2953 21 16.0573 21 14.1562C21 12.2552 20.9912 12.0166 20.9577 11.2699C20.9227 10.5247 20.8046 10.016 20.6325 9.57096C20.4531 9.11056 20.214 8.72002 19.8246 8.33094C19.4352 7.94156 19.0458 7.7024 18.585 7.52375C18.1387 7.35065 17.6298 7.23267 16.8845 7.19854C16.1379 7.16456 15.9002 7.15625 13.9985 7.15625H14.0007Z" fill="#101828"/>
<path fill-rule="evenodd" clip-rule="evenodd" d="M13.3753 8.41581C13.4972 8.41562 13.6284 8.41568 13.7699 8.41574L14.0032 8.41581C15.8723 8.41581 16.0938 8.42252 16.8319 8.45606C17.5144 8.48727 17.8848 8.60131 18.1315 8.69712C18.4582 8.824 18.6911 8.97567 18.936 9.22067C19.181 9.46567 19.3326 9.699 19.4598 10.0257C19.5556 10.2721 19.6698 10.6425 19.7009 11.325C19.7344 12.063 19.7417 12.2846 19.7417 14.1527C19.7417 16.0209 19.7344 16.2425 19.7009 16.9805C19.6697 17.663 19.5556 18.0334 19.4598 18.2798C19.3329 18.6065 19.181 18.8391 18.936 19.084C18.691 19.329 18.4584 19.4806 18.1315 19.6075C17.8851 19.7037 17.5144 19.8175 16.8319 19.8487C16.0939 19.8822 15.8723 19.8895 14.0032 19.8895C12.1341 19.8895 11.9126 19.8822 11.1746 19.8487C10.4921 19.8172 10.1217 19.7032 9.87481 19.6074C9.54814 19.4805 9.3148 19.3288 9.0698 19.0838C8.8248 18.8388 8.67313 18.6061 8.54596 18.2792C8.45015 18.0328 8.33596 17.6624 8.3049 16.9799C8.27136 16.242 8.26465 16.0203 8.26465 14.151C8.26465 12.2817 8.27136 12.0612 8.3049 11.3233C8.33611 10.6408 8.45015 10.2704 8.54596 10.0236C8.67284 9.69696 8.8248 9.46362 9.0698 9.21862C9.3148 8.97362 9.54814 8.82196 9.87481 8.69479C10.1216 8.59854 10.4921 8.48479 11.1746 8.45344C11.8204 8.42427 12.0706 8.41552 13.3753 8.41406V8.41581ZM17.74 9.5789C17.2762 9.5789 16.9 9.95472 16.9 10.4186C16.9 10.8824 17.2762 11.2586 17.74 11.2586C18.2037 11.2586 18.58 10.8824 18.58 10.4186C18.58 9.95486 18.2037 9.57861 17.74 9.57861V9.5789ZM10.4073 14.1578C10.4073 12.1726 12.0168 10.5631 14.002 10.563C15.9873 10.563 17.5964 12.1726 17.5964 14.1578C17.5964 16.143 15.9874 17.7518 14.0022 17.7518C12.0169 17.7518 10.4073 16.143 10.4073 14.1578Z" fill="#F2F4F7"/>
<path d="M14.0008 11.8242C15.2894 11.8242 16.3342 12.8688 16.3342 14.1576C16.3342 15.4461 15.2894 16.4909 14.0008 16.4909C12.7121 16.4909 11.6675 15.4461 11.6675 14.1576C11.6675 12.8688 12.7121 11.8242 14.0008 11.8242Z" fill="#F2F4F7"/>
</svg>
