<svg width="28" height="29" viewBox="0 0 28 29" fill="none" xmlns="http://www.w3.org/2000/svg">
<rect y="0.15625" width="28" height="28" rx="14" fill="#F2F4F7"/>
<path d="M10.6667 12.1562H8V20.1562H10.6667V12.1562Z" fill="#101828"/>
<path d="M10.6667 9.48912C10.6513 8.73252 10.1519 8.15625 9.34103 8.15625C8.53013 8.15625 8 8.73252 8 9.48912C8 10.2301 8.51446 10.8229 9.31026 10.8229H9.3254C10.1519 10.8229 10.6667 10.2301 10.6667 9.48912Z" fill="#101828"/>
<path d="M20 15.6744C20 13.2736 18.7072 12.1562 16.9828 12.1562C15.5915 12.1562 14.9686 12.9149 14.6208 13.4471V12.34H12C12.0345 13.0734 12 20.1562 12 20.1562H14.6208V15.791C14.6208 15.5574 14.6378 15.3244 14.7071 15.1571C14.8965 14.6904 15.3277 14.2073 16.0517 14.2073C17.0003 14.2073 17.3795 14.924 17.3795 15.9743V20.156H19.9999L20 15.6744Z" fill="#101828"/>
</svg>
