<svg width="56" height="56" viewBox="0 0 56 56" fill="none" xmlns="http://www.w3.org/2000/svg">
<rect x="4" y="4" width="48" height="48" rx="24" fill="#EDFFFA"/>
<rect x="4" y="4" width="48" height="48" rx="24" stroke="#B9FFEA" stroke-width="8"/>
<path d="M35.95 37C33.8667 37 31.8043 36.55 29.763 35.65C27.7217 34.75 25.8673 33.4667 24.2 31.8C22.5327 30.1333 21.2493 28.2833 20.35 26.25C19.4507 24.2167 19.0007 22.15 19 20.05V19H24.9L25.825 24.025L22.975 26.9C23.3417 27.55 23.75 28.1667 24.2 28.75C24.65 29.3333 25.1333 29.875 25.65 30.375C26.1333 30.8583 26.6627 31.321 27.238 31.763C27.8133 32.205 28.434 32.6173 29.1 33L32 30.1L37 31.125V37H35.95Z" fill="#001B42"/>
</svg>
