<svg width="148" height="20" viewBox="0 0 148 20" fill="none" xmlns="http://www.w3.org/2000/svg">
<g clip-path="url(#clip0_2214_12667)">
<path d="M9.53834 1.60996C9.70914 1.19932 10.2909 1.19932 10.4617 1.60996L12.5278 6.57744C12.5998 6.75056 12.7626 6.86885 12.9495 6.88383L18.3123 7.31376C18.7556 7.3493 18.9354 7.90256 18.5976 8.19189L14.5117 11.6919C14.3693 11.8139 14.3071 12.0053 14.3506 12.1876L15.5989 17.4208C15.7021 17.8534 15.2315 18.1954 14.8519 17.9635L10.2606 15.1592C10.1006 15.0615 9.89938 15.0615 9.73937 15.1592L5.14806 17.9635C4.76851 18.1954 4.29788 17.8534 4.40108 17.4208L5.64939 12.1876C5.69289 12.0053 5.6307 11.8139 5.48831 11.6919L1.40241 8.19189C1.06464 7.90256 1.24441 7.3493 1.68773 7.31376L7.05054 6.88383C7.23744 6.86885 7.40024 6.75056 7.47225 6.57744L9.53834 1.60996Z" fill="#F2F4F7"/>
<g clip-path="url(#clip1_2214_12667)">
<path d="M9.53834 1.60996C9.70914 1.19932 10.2909 1.19932 10.4617 1.60996L12.5278 6.57744C12.5998 6.75056 12.7626 6.86885 12.9495 6.88383L18.3123 7.31376C18.7556 7.3493 18.9354 7.90256 18.5976 8.19189L14.5117 11.6919C14.3693 11.8139 14.3071 12.0053 14.3506 12.1876L15.5989 17.4208C15.7021 17.8534 15.2315 18.1954 14.8519 17.9635L10.2606 15.1592C10.1006 15.0615 9.89938 15.0615 9.73937 15.1592L5.14806 17.9635C4.76851 18.1954 4.29788 17.8534 4.40108 17.4208L5.64939 12.1876C5.69289 12.0053 5.6307 11.8139 5.48831 11.6919L1.40241 8.19189C1.06464 7.90256 1.24441 7.3493 1.68773 7.31376L7.05054 6.88383C7.23744 6.86885 7.40024 6.75056 7.47225 6.57744L9.53834 1.60996Z" fill="#FDB022"/>
</g>
</g>
<g clip-path="url(#clip2_2214_12667)">
<path d="M41.5383 1.60996C41.7091 1.19932 42.2909 1.19932 42.4617 1.60996L44.5278 6.57744C44.5998 6.75056 44.7626 6.86885 44.9495 6.88383L50.3123 7.31376C50.7556 7.3493 50.9354 7.90256 50.5976 8.19189L46.5117 11.6919C46.3693 11.8139 46.3071 12.0053 46.3506 12.1876L47.5989 17.4208C47.7021 17.8534 47.2315 18.1954 46.8519 17.9635L42.2606 15.1592C42.1006 15.0615 41.8994 15.0615 41.7394 15.1592L37.1481 17.9635C36.7685 18.1954 36.2979 17.8534 36.4011 17.4208L37.6494 12.1876C37.6929 12.0053 37.6307 11.8139 37.4883 11.6919L33.4024 8.19189C33.0646 7.90256 33.2444 7.3493 33.6877 7.31376L39.0505 6.88383C39.2374 6.86885 39.4002 6.75056 39.4722 6.57744L41.5383 1.60996Z" fill="#F2F4F7"/>
<g clip-path="url(#clip3_2214_12667)">
<path d="M41.5383 1.60996C41.7091 1.19932 42.2909 1.19932 42.4617 1.60996L44.5278 6.57744C44.5998 6.75056 44.7626 6.86885 44.9495 6.88383L50.3123 7.31376C50.7556 7.3493 50.9354 7.90256 50.5976 8.19189L46.5117 11.6919C46.3693 11.8139 46.3071 12.0053 46.3506 12.1876L47.5989 17.4208C47.7021 17.8534 47.2315 18.1954 46.8519 17.9635L42.2606 15.1592C42.1006 15.0615 41.8994 15.0615 41.7394 15.1592L37.1481 17.9635C36.7685 18.1954 36.2979 17.8534 36.4011 17.4208L37.6494 12.1876C37.6929 12.0053 37.6307 11.8139 37.4883 11.6919L33.4024 8.19189C33.0646 7.90256 33.2444 7.3493 33.6877 7.31376L39.0505 6.88383C39.2374 6.86885 39.4002 6.75056 39.4722 6.57744L41.5383 1.60996Z" fill="#FDB022"/>
</g>
</g>
<g clip-path="url(#clip4_2214_12667)">
<path d="M73.5383 1.60996C73.7091 1.19932 74.2909 1.19932 74.4617 1.60996L76.5278 6.57744C76.5998 6.75056 76.7626 6.86885 76.9495 6.88383L82.3123 7.31376C82.7556 7.3493 82.9354 7.90256 82.5976 8.19189L78.5117 11.6919C78.3693 11.8139 78.3071 12.0053 78.3506 12.1876L79.5989 17.4208C79.7021 17.8534 79.2315 18.1954 78.8519 17.9635L74.2606 15.1592C74.1006 15.0615 73.8994 15.0615 73.7394 15.1592L69.1481 17.9635C68.7685 18.1954 68.2979 17.8534 68.4011 17.4208L69.6494 12.1876C69.6929 12.0053 69.6307 11.8139 69.4883 11.6919L65.4024 8.19189C65.0646 7.90256 65.2444 7.3493 65.6877 7.31376L71.0505 6.88383C71.2374 6.86885 71.4002 6.75056 71.4722 6.57744L73.5383 1.60996Z" fill="#F2F4F7"/>
<g clip-path="url(#clip5_2214_12667)">
<path d="M73.5383 1.60996C73.7091 1.19932 74.2909 1.19932 74.4617 1.60996L76.5278 6.57744C76.5998 6.75056 76.7626 6.86885 76.9495 6.88383L82.3123 7.31376C82.7556 7.3493 82.9354 7.90256 82.5976 8.19189L78.5117 11.6919C78.3693 11.8139 78.3071 12.0053 78.3506 12.1876L79.5989 17.4208C79.7021 17.8534 79.2315 18.1954 78.8519 17.9635L74.2606 15.1592C74.1006 15.0615 73.8994 15.0615 73.7394 15.1592L69.1481 17.9635C68.7685 18.1954 68.2979 17.8534 68.4011 17.4208L69.6494 12.1876C69.6929 12.0053 69.6307 11.8139 69.4883 11.6919L65.4024 8.19189C65.0646 7.90256 65.2444 7.3493 65.6877 7.31376L71.0505 6.88383C71.2374 6.86885 71.4002 6.75056 71.4722 6.57744L73.5383 1.60996Z" fill="#FDB022"/>
</g>
</g>
<g clip-path="url(#clip6_2214_12667)">
<path d="M105.538 1.60996C105.709 1.19932 106.291 1.19932 106.462 1.60996L108.528 6.57744C108.6 6.75056 108.763 6.86885 108.949 6.88383L114.312 7.31376C114.756 7.3493 114.935 7.90256 114.598 8.19189L110.512 11.6919C110.369 11.8139 110.307 12.0053 110.351 12.1876L111.599 17.4208C111.702 17.8534 111.231 18.1954 110.852 17.9635L106.261 15.1592C106.101 15.0615 105.899 15.0615 105.739 15.1592L101.148 17.9635C100.769 18.1954 100.298 17.8534 100.401 17.4208L101.649 12.1876C101.693 12.0053 101.631 11.8139 101.488 11.6919L97.4024 8.19189C97.0646 7.90256 97.2444 7.3493 97.6877 7.31376L103.051 6.88383C103.237 6.86885 103.4 6.75056 103.472 6.57744L105.538 1.60996Z" fill="#F2F4F7"/>
<g clip-path="url(#clip7_2214_12667)">
<path d="M105.538 1.60996C105.709 1.19932 106.291 1.19932 106.462 1.60996L108.528 6.57744C108.6 6.75056 108.763 6.86885 108.949 6.88383L114.312 7.31376C114.756 7.3493 114.935 7.90256 114.598 8.19189L110.512 11.6919C110.369 11.8139 110.307 12.0053 110.351 12.1876L111.599 17.4208C111.702 17.8534 111.231 18.1954 110.852 17.9635L106.261 15.1592C106.101 15.0615 105.899 15.0615 105.739 15.1592L101.148 17.9635C100.769 18.1954 100.298 17.8534 100.401 17.4208L101.649 12.1876C101.693 12.0053 101.631 11.8139 101.488 11.6919L97.4024 8.19189C97.0646 7.90256 97.2444 7.3493 97.6877 7.31376L103.051 6.88383C103.237 6.86885 103.4 6.75056 103.472 6.57744L105.538 1.60996Z" fill="#FDB022"/>
</g>
</g>
<g clip-path="url(#clip8_2214_12667)">
<path d="M137.538 1.60996C137.709 1.19932 138.291 1.19932 138.462 1.60996L140.528 6.57744C140.6 6.75056 140.763 6.86885 140.949 6.88383L146.312 7.31376C146.756 7.3493 146.935 7.90256 146.598 8.19189L142.512 11.6919C142.369 11.8139 142.307 12.0053 142.351 12.1876L143.599 17.4208C143.702 17.8534 143.231 18.1954 142.852 17.9635L138.261 15.1592C138.101 15.0615 137.899 15.0615 137.739 15.1592L133.148 17.9635C132.769 18.1954 132.298 17.8534 132.401 17.4208L133.649 12.1876C133.693 12.0053 133.631 11.8139 133.488 11.6919L129.402 8.19189C129.065 7.90256 129.244 7.3493 129.688 7.31376L135.051 6.88383C135.237 6.86885 135.4 6.75056 135.472 6.57744L137.538 1.60996Z" fill="#F2F4F7"/>
</g>
<defs>
<clipPath id="clip0_2214_12667">
<rect width="20" height="20" fill="white"/>
</clipPath>
<clipPath id="clip1_2214_12667">
<rect width="20" height="20" fill="white"/>
</clipPath>
<clipPath id="clip2_2214_12667">
<rect width="20" height="20" fill="white" transform="translate(32)"/>
</clipPath>
<clipPath id="clip3_2214_12667">
<rect width="20" height="20" fill="white" transform="translate(32)"/>
</clipPath>
<clipPath id="clip4_2214_12667">
<rect width="20" height="20" fill="white" transform="translate(64)"/>
</clipPath>
<clipPath id="clip5_2214_12667">
<rect width="20" height="20" fill="white" transform="translate(64)"/>
</clipPath>
<clipPath id="clip6_2214_12667">
<rect width="20" height="20" fill="white" transform="translate(96)"/>
</clipPath>
<clipPath id="clip7_2214_12667">
<rect width="20" height="20" fill="white" transform="translate(96)"/>
</clipPath>
<clipPath id="clip8_2214_12667">
<rect width="20" height="20" fill="white" transform="translate(128)"/>
</clipPath>
</defs>
</svg>
