<svg width="56" height="56" viewBox="0 0 56 56" fill="none" xmlns="http://www.w3.org/2000/svg">
<rect x="4" y="4" width="48" height="48" rx="24" fill="#EDFFFA"/>
<rect x="4" y="4" width="48" height="48" rx="24" stroke="#B9FFEA" stroke-width="8"/>
<path d="M24.1434 27.9999C24.6499 27.9999 25.1515 27.9002 25.6195 27.7063C26.0875 27.5125 26.5127 27.2284 26.8708 26.8702C27.229 26.512 27.5131 26.0868 27.707 25.6189C27.9008 25.1509 28.0006 24.6493 28.0006 24.1428C28.0006 23.6363 27.9008 23.1347 27.707 22.6667C27.5131 22.1988 27.229 21.7735 26.8708 21.4154C26.5127 21.0572 26.0875 20.7731 25.6195 20.5793C25.1515 20.3854 24.6499 20.2856 24.1434 20.2856C23.1204 20.2856 22.1394 20.692 21.416 21.4154C20.6926 22.1387 20.2863 23.1198 20.2863 24.1428C20.2863 25.1658 20.6926 26.1468 21.416 26.8702C22.1394 27.5936 23.1204 27.9999 24.1434 27.9999ZM30.6577 34.5305C31.3117 34.7319 32.1268 34.8571 33.1434 34.8571C38.2863 34.8571 38.2863 31.6428 38.2863 31.6428C38.2863 31.1313 38.0831 30.6408 37.7214 30.2791C37.3597 29.9174 36.8692 29.7142 36.3577 29.7142H30.6526C31.1507 30.2325 31.4285 30.9239 31.4274 31.6428V32.1185L31.4248 32.1896C31.4068 32.4759 31.3626 32.76 31.2928 33.0382C31.1602 33.5653 30.9462 34.0685 30.6586 34.5296M36.1434 24.9999C36.1434 25.3939 36.0658 25.784 35.9151 26.148C35.7643 26.512 35.5433 26.8427 35.2647 27.1213C34.9862 27.3998 34.6554 27.6208 34.2915 27.7716C33.9275 27.9223 33.5374 27.9999 33.1434 27.9999C32.7495 27.9999 32.3593 27.9223 31.9954 27.7716C31.6314 27.6208 31.3007 27.3998 31.0221 27.1213C30.7435 26.8427 30.5225 26.512 30.3718 26.148C30.221 25.784 30.1434 25.3939 30.1434 24.9999C30.1434 24.2043 30.4595 23.4412 31.0221 22.8786C31.5847 22.316 32.3478 21.9999 33.1434 21.9999C33.9391 21.9999 34.7021 22.316 35.2647 22.8786C35.8273 23.4412 36.1434 24.2043 36.1434 24.9999ZM17.7148 31.6428C17.7148 31.1313 17.918 30.6408 18.2797 30.2791C18.6414 29.9174 19.1319 29.7142 19.6434 29.7142H28.6434C29.1549 29.7142 29.6454 29.9174 30.0071 30.2791C30.3688 30.6408 30.572 31.1313 30.572 31.6428V32.0714C30.572 32.0714 30.572 36.5714 24.1434 36.5714C17.7148 36.5714 17.7148 32.0714 17.7148 32.0714V31.6428Z" fill="#001B42"/>
</svg>
