<svg width="124" height="36" viewBox="0 0 124 36" fill="none" xmlns="http://www.w3.org/2000/svg">
<g clip-path="url(#clip0_132_37789)">
<path d="M43.8699 14.1233C43.8699 10.549 46.5375 8.05318 51.3854 8.05318C54.3434 8.05318 56.7639 8.97582 58.0752 9.87964C58.2629 10.0087 58.5977 10.3218 58.397 10.9041C58.1397 11.5312 57.6678 12.4744 57.3293 13.087C57.1323 13.444 56.6291 13.397 56.3713 13.2694C55.4372 12.807 53.9051 12.0247 52.4977 11.8805C52.1413 11.8426 51.7828 11.8274 51.4244 11.8351C50.1849 11.8622 49.1493 12.2826 48.7847 13.2064C48.7132 13.3812 48.6733 13.5668 48.6669 13.755C48.6328 14.9723 50.3671 15.4126 52.4681 15.7652C56.374 16.4189 59.3291 17.5376 59.3291 21.4651C59.3291 24.8003 56.6157 27.8145 51.2995 27.7221C47.7948 27.6529 45.3084 26.496 43.976 25.3734C43.9306 25.3353 43.4234 24.8307 43.6953 24.2238C44.0064 23.4425 44.5316 22.5471 44.9437 22.0717C45.1728 21.7663 45.7775 21.7178 46.0918 21.9082C47.1901 22.5749 48.9975 23.6439 51.0809 23.7148C51.2454 23.7204 51.4084 23.7213 51.5684 23.7172C53.4424 23.6729 54.5762 22.9787 54.5525 21.8093C54.5323 20.779 53.0464 20.1772 50.6802 19.7416C46.9064 19.0471 43.8704 17.8319 43.8704 14.1233M78.1544 19.2126C75.4932 19.2466 73.0532 19.9572 72.9828 21.989C72.9821 23.6012 74.3209 24.3931 76.1999 24.2894C78.0023 24.1198 79.3769 23.3562 79.9826 22.3428C80.2065 21.9673 80.2406 20.562 80.227 19.9613C80.2235 19.8335 79.9648 19.5916 79.8514 19.545C79.286 19.3122 78.8675 19.2404 78.1542 19.2121M69.2994 11.0259C70.5438 9.93802 73.0112 8.24471 76.9436 8.33396C82.1329 8.43937 84.8744 10.816 85.1297 16.5014C85.2349 18.846 85.0606 25.3857 85.0191 27.0151C85.0129 27.2488 84.9319 27.4104 84.6095 27.4165C83.7549 27.45 81.7806 27.4367 80.8734 27.4252C80.4156 27.4034 80.3626 27.1815 80.3566 26.9492C80.3527 26.7973 80.3393 26.3467 80.3297 25.9793C80.3245 25.7844 80.1371 25.79 80.0892 25.8399C78.8719 27.1097 76.8784 27.7228 74.7584 27.7228C71.5362 27.7228 68.3238 25.871 68.3337 22.2039C68.3436 18.4482 71.0695 16.5957 74.0641 16.1589C75.9816 15.88 78.1431 16.128 79.7798 16.7633C79.8845 16.8044 80.0984 16.745 80.1001 16.6C80.1068 16.1215 80.0831 15.2095 79.989 14.7772C79.7487 13.6758 78.8082 12.7896 76.8325 12.5508C76.4255 12.5019 76.0159 12.4857 75.6058 12.5175C74.0352 12.6381 72.1451 13.8346 71.3624 14.2825C71.1782 14.3877 70.8898 14.3107 70.7964 14.1932C70.3396 13.6167 69.1915 11.9307 69.1011 11.6612C69.0107 11.3925 69.1382 11.1663 69.2989 11.0249L69.2994 11.0259ZM86.8408 18.0172C86.8099 12.7792 90.5457 8.36049 96.6119 8.32165C100.397 8.29753 103.147 9.97396 103.632 10.7646C103.73 10.9504 103.68 11.1055 103.612 11.2924C103.291 11.9533 102.482 13.2303 101.905 13.954C101.659 14.2622 101.393 13.9981 101.083 13.7967C100.223 13.2371 98.5887 12.5528 96.9805 12.5528C94.063 12.5532 91.8904 14.5075 91.9146 18.103C91.9373 21.5533 94.0183 23.4495 96.9906 23.5182C98.5445 23.5564 100.05 22.6839 100.86 21.9692C101.114 21.7523 101.377 21.8609 101.668 22.0828C102.238 22.6523 103.056 23.5315 103.51 24.1367C103.807 24.473 103.585 24.802 103.478 24.9342C102.247 26.4555 99.8704 27.7358 96.725 27.7532C90.1388 27.7983 86.8717 23.2744 86.8413 18.0179M118.279 27.5171C118.589 27.4944 121.888 27.0496 122.9 26.8231C123.152 26.7671 123.241 26.5607 123.1 26.3561C122.535 25.5278 121.048 23.1755 119.491 21.0697C118.059 19.1335 116.55 17.4305 116.062 16.7754C115.943 16.6162 115.949 16.4594 116.079 16.3359C117.007 15.4483 120.892 11.7276 122.352 10.191C122.918 9.59332 122.578 9.33619 122.098 9.19653C121.17 8.92637 119.67 8.58964 118.816 8.4138C118.457 8.3395 118.023 8.36555 117.709 8.68154C116.249 10.0118 111.792 14.3814 110.462 15.6875C110.222 15.9232 110.083 15.8709 110.081 15.5341C110.071 13.0159 110.02 2.23419 109.928 0.460798C109.921 0.22634 109.633 0.0483253 109.47 0.0398829C108.633 -0.00281159 106.52 -0.0151136 105.687 0.0326464C105.454 0.0584561 105.231 0.290743 105.211 0.48709C105.019 3.32278 105.292 24.1389 105.406 27.0508C105.414 27.2614 105.575 27.4247 105.779 27.4365C106.61 27.4835 108.665 27.4804 109.625 27.4628C110.097 27.4628 110.155 27.1386 110.155 27.1386L110.226 21.5529C110.226 21.5529 110.275 21.3044 110.353 21.2224C110.692 20.8666 111.627 19.8868 112.026 19.5081C112.122 19.4172 112.273 19.4237 112.371 19.5522C112.845 20.177 114.197 22.208 115.45 24.0219C116.601 25.6882 117.676 27.1671 117.751 27.2715C117.925 27.5127 118.127 27.5224 118.28 27.5178V27.5171H118.279ZM62.1728 27.4978C62.4629 27.5072 64.6641 27.5048 65.6394 27.5035C65.9678 27.5098 66.1384 27.2669 66.1493 27.0525C66.3564 22.9697 66.2678 3.53143 66.1369 0.462004C66.1261 0.196671 66.0098 0.0970504 65.8243 0.0729292C64.9873 -0.036581 62.6086 -0.0110128 61.8461 0.183886C61.697 0.221757 61.6091 0.332473 61.6044 0.474788C61.4177 8.38654 61.5436 26.627 61.5831 26.9724C61.6224 27.3183 61.8076 27.4857 62.1732 27.4978H62.1728Z" fill="#443642"/>
<path d="M3.26117 19.3801C1.90464 19.3902 0.755505 18.6005 0.331803 17.3679C0.316085 17.3213 0.301431 17.2745 0.287852 17.2273C-0.173874 15.6488 0.721431 13.9974 2.32612 13.4687L28.0643 5.04486C28.3699 4.95849 28.6862 4.91337 29.0043 4.91075C30.3969 4.90013 31.5776 5.70723 32.0117 6.96587L32.0502 7.08745C32.5317 8.73155 31.3354 10.1991 29.9021 10.6694C29.9011 10.6702 29.6403 10.7563 4.3066 19.2062C3.96987 19.3183 3.61692 19.377 3.26117 19.3801Z" fill="#70CADB"/>
<path d="M7.55155 31.7456C6.1844 31.7552 5.03132 30.9766 4.61255 29.7616C4.59666 29.7154 4.58184 29.6688 4.56811 29.622C4.09996 28.0247 4.99428 26.3559 6.6044 25.8265L32.3436 17.3255C32.6761 17.2169 33.0196 17.1614 33.365 17.1583C34.7359 17.1482 35.9403 17.9664 36.3653 19.1951L36.4048 19.3229C36.6534 20.1722 36.5065 21.1267 36.0122 21.88C35.6438 22.4401 34.4818 22.9332 34.4818 22.9332L8.64488 31.5635C8.29251 31.68 7.92355 31.7416 7.55155 31.7461V31.7456Z" fill="#E01765"/>
<path d="M28.9778 31.7996C28.3106 31.8059 27.6586 31.6057 27.115 31.2277C26.5714 30.8497 26.1643 30.3134 25.9519 29.6955L17.3618 4.76868L17.3188 4.62877C16.8534 3.03919 17.7484 1.38109 19.3526 0.852841C19.6736 0.747431 20.0055 0.692435 20.3395 0.68954C20.8358 0.685922 21.3161 0.795191 21.7684 1.01349C22.141 1.1935 22.4735 1.4437 22.7468 1.7497C23.0201 2.0557 23.2287 2.41147 23.3608 2.79653L31.9501 27.7212L31.9751 27.8013C32.4575 29.4517 31.5644 31.1107 29.9603 31.639C29.6434 31.7424 29.3119 31.7966 28.9778 31.7996Z" fill="#E8A723"/>
<path d="M16.2078 35.9979C15.5403 36.0042 14.8879 35.8038 14.3441 35.4255C13.8003 35.0472 13.393 34.5105 13.1807 33.8922L4.5928 8.96629C4.45973 8.58174 4.40561 8.17533 4.43353 7.77033C4.46146 7.36533 4.57088 6.96968 4.75552 6.60604C4.94017 6.2424 5.19643 5.91791 5.50961 5.65114C5.8228 5.38438 6.18677 5.18058 6.58069 5.05142C6.89803 4.94778 7.23005 4.89341 7.56464 4.89029C8.2319 4.88385 8.88412 5.08397 9.42779 5.46196C9.97147 5.83994 10.3787 6.37638 10.591 6.99438L19.1792 31.9212C19.3123 32.3059 19.3664 32.7126 19.3384 33.1177C19.3104 33.5229 19.2008 33.9187 19.0159 34.2825C18.831 34.6462 18.5745 34.9708 18.261 35.2375C17.9475 35.5042 17.5832 35.7079 17.189 35.8368C16.8723 35.9405 16.5409 35.9948 16.2068 35.9977L16.2078 35.9979Z" fill="#3EB890"/>
<path d="M24.7429 26.186L30.7325 24.1854L28.7745 18.5049L22.778 20.4845L24.7429 26.186Z" fill="#CC2027"/>
<path d="M11.993 30.4445L17.9822 28.4442L16.0093 22.7202L10.0143 24.7006L11.993 30.4445Z" fill="#361238"/>
<path d="M20.478 13.8129L26.4681 11.8149L24.5331 6.20068L18.5319 8.16487L20.478 13.8129Z" fill="#65863A"/>
<path d="M7.72805 18.0652L13.7181 16.0672L11.7594 10.3813L5.75818 12.3453L7.72805 18.0652Z" fill="#1A937D"/>
</g>
<defs>
<clipPath id="clip0_132_37789">
<rect width="123" height="36" fill="white" transform="translate(0.166626)"/>
</clipPath>
</defs>
</svg>
