<svg width="56" height="56" viewBox="0 0 56 56" fill="none" xmlns="http://www.w3.org/2000/svg">
<rect x="4" y="4" width="48" height="48" rx="24" fill="#EDFFFA"/>
<rect x="4" y="4" width="48" height="48" rx="24" stroke="#B9FFEA" stroke-width="8"/>
<path d="M28 18C22.486 18 18 22.486 18 28V32.143C18 33.167 18.897 34 20 34H21C21.2652 34 21.5196 33.8946 21.7071 33.7071C21.8946 33.5196 22 33.2652 22 33V27.857C22 27.5918 21.8946 27.3374 21.7071 27.1499C21.5196 26.9624 21.2652 26.857 21 26.857H20.092C20.648 22.987 23.978 20 28 20C32.022 20 35.352 22.987 35.908 26.857H35C34.7348 26.857 34.4804 26.9624 34.2929 27.1499C34.1054 27.3374 34 27.5918 34 27.857V34C34 35.103 33.103 36 32 36H30V35H26V38H32C34.206 38 36 36.206 36 34C37.103 34 38 33.167 38 32.143V28C38 22.486 33.514 18 28 18Z" fill="#001B42"/>
</svg>
