<svg width="" height="" viewBox="0 0 125 36" fill="none" xmlns="http://www.w3.org/2000/svg">
<path fill-rule="evenodd" clip-rule="evenodd" d="M99.9313 26.8176C98.0453 27.5938 96.5571 30.2756 94.2937 31.8C94.1534 31.8945 94.0131 31.9418 93.9195 31.9418C93.7324 31.9418 93.4985 31.7527 93.4985 30.902C93.4985 27.9719 94.4341 26.5541 95.2293 24.4747C97.9896 17.2439 102.715 11.0528 106.925 4.29453C107.253 3.77464 107.44 3.20761 107.44 2.59314C107.44 2.07339 107.253 1.64793 107.019 1.12819C106.832 0.702729 105.989 0.324707 105.054 0.324707C104.539 0.324707 104.071 0.371997 103.463 0.371997C101.264 0.371997 100.797 3.63292 100.282 4.48355C96.7733 10.4857 92.7499 17.9056 90.6915 23.1513C90.2401 24.3273 89.7524 25.5034 89.3819 26.7103C87.3477 27.3054 85.8237 30.1947 83.4402 31.8C83.2999 31.8945 83.1594 31.9418 83.0658 31.9418C82.8787 31.9418 82.6449 31.7527 82.6449 30.902C82.6449 27.9719 83.5804 26.5541 84.3757 24.4747C87.136 17.2439 91.8611 11.0528 96.0714 4.29453C96.3989 3.77464 96.5862 3.20761 96.5862 2.59314C96.5862 2.07339 96.3989 1.64793 96.165 1.12819C95.9779 0.702729 95.1357 0.324707 94.2002 0.324707C93.6856 0.324707 93.2177 0.371997 92.6096 0.371997C90.4108 0.371997 89.9429 3.63292 89.4283 4.48355C85.9196 10.4857 81.8962 17.9056 79.8378 23.1513C79.6742 23.5777 79.5059 24.004 79.34 24.4319C79.2869 24.4606 79.2345 24.4906 79.1829 24.522C76.7969 25.9398 74.7852 28.4445 71.8849 30.1459C71.3234 30.4767 69.5924 31.7055 68.1889 31.7055C67.8614 31.7055 67.5808 31.611 67.2999 31.4692C66.8791 31.2801 66.4579 30.3822 66.4579 30.0986C66.4579 29.8623 66.5047 29.8152 66.9725 29.5315C71.0895 27.0267 74.4578 23.4349 77.3584 19.8431C78.4343 18.5199 79.8378 15.9206 79.8378 14.0302C79.8378 12.8014 79.4168 11.3837 77.9665 10.8637C76.9372 10.4857 75.7677 10.2966 74.8321 10.2966C72.3527 10.2966 70.5281 11.4309 69.4988 12.5179C68.451 13.6478 67.4376 14.8081 66.4959 16.0093C65.5121 15.1513 64.1242 14.7864 62.8089 14.7864C61.2651 14.7864 58.3645 16.7241 56.8674 17.8583C56.6335 18.0473 56.4932 18.1417 56.3996 18.1417C56.3529 18.1417 56.3061 18.0946 56.3061 18C56.3061 17.9527 56.3996 17.5274 56.3996 16.7712C56.3996 16.1096 56.2593 15.259 55.6512 14.2192C55.5109 13.9829 54.6687 13.463 53.6394 13.463C52.3764 13.463 51.2068 14.0775 51.2068 14.7391C51.2068 15.2117 51.6277 15.4007 51.6277 15.826C51.6277 16.0623 51.4407 17.1492 51.16 18.189C50.3646 21.2138 49.3822 24.1911 48.353 27.1684C47.7916 28.8226 45.9203 30.2878 45.9203 32.0836C45.9203 32.6507 46.2946 33.4069 46.8093 33.974C47.6513 34.9192 48.1659 35.25 48.9143 35.25C49.2419 35.25 49.6161 35.1555 49.9436 34.8719C50.6454 34.2575 51.0196 33.6432 51.2068 32.7924C52.4231 27.2157 55.9318 23.4349 59.8147 20.9302C61.1247 20.0794 62.9025 19.1815 63.1364 19.1815C63.3763 19.1815 63.7514 19.2934 64.1294 19.4023C63.044 21.1908 62.1645 23.0769 61.5925 25.089C61.4054 25.7506 61.3119 26.3651 61.3119 27.0267C61.3119 28.1137 61.5457 29.248 61.9201 30.3349C62.4347 31.8473 63.2767 33.1706 64.4463 33.7849C66.5983 34.9192 68.1421 35.5336 69.5456 35.5336C70.341 35.5336 70.9491 35.3918 71.6042 35.0137C74.679 33.2563 76.5642 31.9228 77.9254 30.7386C77.9628 31.9394 78.1972 32.6046 79.0426 33.5014C79.8846 34.3993 81.1945 35.2027 82.9255 35.5809C83.2061 35.6281 83.487 35.6753 83.7676 35.6753C85.7481 35.6753 87.654 34.0492 89.1236 32.4372C89.2938 32.7889 89.5411 33.1248 89.8961 33.5014C90.7383 34.3993 92.0482 35.2027 93.7792 35.5809C94.0598 35.6281 94.3405 35.6753 94.6212 35.6753C96.9412 35.6753 99.1588 33.444 100.693 31.6177C101.204 32.6859 102.633 33.7421 104.352 34.5884C104.82 34.8247 105.381 34.9664 105.896 34.9664C107.908 34.9664 109.358 33.3123 110.481 32.0836C113.381 28.8698 114.972 24.9 116.188 19.8904C116.282 19.5124 116.422 19.3705 116.609 19.3705C117.077 19.3705 117.685 19.3705 118.34 19.2761C119.603 19.0871 120.586 18.6616 121.755 18.4726C122.457 18.3309 122.363 18.0946 123.018 17.8583C123.486 17.6693 123.86 17.4801 123.86 17.0075C123.86 16.2042 122.41 15.3534 120.211 15.3534C118.48 15.3534 117.451 15.4951 116.749 15.4951C115.674 15.4951 115.393 15.1644 114.691 13.3213C114.551 12.9432 114.41 12.7541 113.989 12.3761C113.007 11.5254 111.79 11.2418 110.808 11.2418C108.469 11.2418 106.457 13.6521 105.054 15.6843C104.726 16.1569 104.259 16.5349 103.931 17.0548C102.004 19.975 100.159 23.2681 99.9313 26.8176ZM40.1192 10.722C41.2888 10.722 41.9437 10.6274 42.0842 10.6274C42.2245 10.6274 42.3181 10.6747 42.3181 10.8165C42.3181 10.911 42.2713 11.0528 41.9437 11.7617C39.0899 17.9527 37.1252 24.2384 35.3941 31.1856C35.3473 31.3747 35.207 32.0836 35.207 32.7925C35.207 33.4541 35.3941 34.163 36.0491 34.5411C37.3123 35.2973 38.3415 35.6281 39.0433 35.6281C40.0726 35.6281 40.5871 34.9664 40.5871 33.8795C40.5871 32.9342 40.6339 31.9418 40.7742 31.1856C42.084 24.2383 44.049 18.8035 47.0898 13.1323C48.5401 10.4384 48.7272 10.2966 48.7272 10.0603C48.7272 9.96576 48.6804 9.82404 48.587 9.68217C50.4583 9.25701 52.7038 8.97327 54.7622 8.97327C54.9961 8.97327 55.9318 9.30415 56.0721 9.44587C56.3996 9.77675 56.7271 10.1076 57.2886 10.1076C57.7564 10.1076 58.5516 9.77675 58.8324 9.58774C59.4873 9.11514 59.8148 8.59524 59.8148 7.74462C59.8148 6.94114 56.8674 4.95615 54.809 4.95615C52.2828 4.95615 49.9904 5.28703 47.8384 5.71249C46.9027 5.90135 43.5343 6.42124 41.1015 6.42124C38.7624 6.42124 38.9028 6.09051 37.9204 6.09051C37.3591 6.09051 37.0783 6.37395 36.8444 6.61025C36.6105 6.84656 36.4702 7.79176 36.4702 8.64253C36.4702 9.06785 36.4702 9.39873 36.7041 9.68232C37.4059 10.5329 38.7626 10.722 40.1192 10.722ZM74.7853 14.5499C74.7853 14.9754 74.645 15.259 74.0836 16.1569C73.5221 17.0549 73.7561 17.0549 73.0543 18C71.6976 19.8431 70.0134 21.6862 67.8147 23.7185C67.2065 24.2857 67.113 24.2857 67.0194 24.2857C66.9725 24.2857 66.8791 24.2384 66.8791 24.144C66.8791 24.0021 66.9257 23.8131 67.3936 22.8206C68.8439 19.7487 70.6217 17.7164 72.5865 15.7316C73.6626 14.6445 74.3175 14.2665 74.5514 14.2665C74.6917 14.2665 74.7853 14.3138 74.7853 14.5499ZM110.761 15.7789C110.808 15.7789 110.855 15.826 110.902 15.9206C110.948 16.0623 111.042 16.204 111.276 16.3932C111.463 16.5349 111.463 17.1967 111.463 17.7164C111.463 22.3007 108.89 26.0815 106.364 29.9096C105.802 30.7603 105.475 30.9021 105.194 30.9021C104.96 30.9021 104.586 30.2876 104.446 29.9096C104.259 29.3897 104.212 28.7754 104.212 28.5391C104.212 24.8529 107.674 19.3705 109.966 16.3459C110.34 15.826 110.621 15.7789 110.761 15.7789Z" fill="#0079BF"/>
<path d="M26.3467 5.5459H4.19573C2.15679 5.5459 0.503906 7.21565 0.503906 9.2754V31.6524C0.503906 33.7121 2.15679 35.3819 4.19573 35.3819H26.3467C28.3856 35.3819 30.0385 33.7121 30.0385 31.6524V9.2754C30.0385 7.21565 28.3856 5.5459 26.3467 5.5459Z" fill="url(#paint0_linear_132_37781)"/>
<path d="M24.4274 9.42432H18.9635C17.9848 9.42432 17.1914 10.2258 17.1914 11.2145V20.6874C17.1914 21.6761 17.9848 22.4776 18.9635 22.4776H24.4274C25.4061 22.4776 26.1995 21.6761 26.1995 20.6874V11.2145C26.1995 10.2258 25.4061 9.42432 24.4274 9.42432Z" fill="white"/>
<path d="M11.5778 9.42432H6.11387C5.13518 9.42432 4.3418 10.2258 4.3418 11.2145V28.1464C4.3418 29.1351 5.13518 29.9366 6.11387 29.9366H11.5778C12.5565 29.9366 13.3499 29.1351 13.3499 28.1464V11.2145C13.3499 10.2258 12.5565 9.42432 11.5778 9.42432Z" fill="white"/>
<defs>
<linearGradient id="paint0_linear_132_37781" x1="15.2712" y1="5.5459" x2="15.2712" y2="35.3819" gradientUnits="userSpaceOnUse">
<stop stop-color="#0079BF"/>
<stop offset="1" stop-color="#0079BF"/>
</linearGradient>
</defs>
</svg>
